<svg version="1.0" xmlns="http://www.w3.org/2000/svg" width="682.667" height="682.667" viewBox="0 0 512 512"><path d="M121 5.1c-1.4.6-5.1 3.3-8.4 6.1l-5.8 5.1-8.2-1.9c-9.4-2.3-13.1-1.8-16 2.2C80 20.3 80.3 24 84 32.4l3.2 7.3-4.6 7.3c-4.7 7.6-5.3 10-3.6 14.4 1.6 4.3 6.2 5.9 14.9 5.1 4.2-.4 7.9-.9 8.2-1.1.4-.2 3.1 2.5 6 6.1 6.1 7.2 9.2 9 14.4 8.1 4.6-.9 6.5-3.9 8.5-13.5l1.6-7.6 8.4-3.6c9.2-3.9 11.2-6 11.2-11.4 0-4.5-1.9-6.6-10.4-11.6-5.1-3-6.8-4.5-6.8-6.2-.2-5.6-1.2-13.4-2.1-15.9-.6-1.5-2.6-3.4-4.4-4.2-3.8-1.8-4.1-1.8-7.5-.5zm262.9 5.4c-19.9 4-36.5 13-51.5 27.9-3.9 3.9-8.6 9.3-10.5 12.1l-3.4 5H302c-9.1.1-19.6.4-23.5.8-3.8.5-8.6 1-10.7 1.2-2 .2-6.4.9-9.7 1.5-3.3.6-7.3 1.3-8.8 1.6-25 4.4-65.3 19-94.3 34.1-59.5 31-100.2 78.2-122.5 142.3-3.3 9.6-9.8 33.2-10.9 39.7-.3 1.6-.8 4.4-1.1 6.3-.3 1.9-.7 4.6-1 6-.3 1.4-.8 4.7-1.1 7.5-.3 2.7-.7 6.1-.9 7.5-.2 1.4-.7 7-1 12.5-.7 9.1-1.1 10.7-4.6 17.1C3.2 349.4 0 363.4.5 382.5c.4 12.3 2.5 23.6 6.2 33.1 1.9 4.8 1.9 5.6.6 11.5-1.4 6.8-1.9 23.1-.9 28.9 4.9 26 16.3 38.9 41.6 47 17.8 5.7 45.1 6 68.5.6 6.1-1.4 19-6.1 25.5-9.4l7.5-3.7 8 2.7c10.8 3.6 17.1 4.5 30.7 4.2 33-.6 77-16.4 97.7-35 8.7-7.8 16.1-21.3 16.1-29.3 0-1.2 1.6-3.1 4.3-4.9 6.3-4.5 12-10.1 16-16 10-14.6 8.7-30.5-3.7-46.6-1.8-2.3-4.1-7.4-5.4-12-3.6-12.5-10.6-26.8-18.7-38.3-6.9-9.6-23.5-23.8-34.5-29.3-5.6-2.8-5-2.1-5.6-6.6-.2-2.2-.7-4.6-.9-5.4-1.6-5.5-2.4-34.9-1.2-48.1 1.9-23 10.8-46.3 23.1-60.6l1.9-2.2 3.8 7.8c9 18.4 25.3 29.3 46.2 30.8l8.2.6 5.8 6.3c5.7 6.2 12.9 10.6 22.2 13.5 6.3 2 23.6 1.5 33.8-1 17.9-4.3 37.5-13.4 52.2-24.4 5.3-3.9 12.9-11.9 19.4-20.3 2.1-2.6 7.1-14.5 8.6-20.3.9-3.5 1.8-9.5 2-13.4.2-6.1.6-7.4 2.6-9 5-3.9 13.2-12.4 16.1-16.5 7.3-10.6 12.5-25.9 13.5-40.1 1.6-23.5-12.8-40.1-37.2-42.8-7.3-.8-8-1.1-13.4-6.3-8.8-8.3-23.5-14.8-39.6-17.5-8.1-1.3-30.9-1.3-37.6 0zM33.1 97.4c-.7.8-1.2 5.9-1.2 13-.1 10-.4 11.6-1.8 11.7-.9 0-7.4.1-14.4.1-9.8 0-13.1.4-14.3 1.5-1.8 1.9-1.8 3.8.2 5.7 1.3 1.3 4.2 1.6 15.9 1.6h14.3l.1 11.6c0 12.3.7 14.4 4.7 14.4 3.4 0 4.1-2.3 3.9-14.8l-.1-11.2H54c14.4 0 16-.5 16-4.7 0-3.4-2.5-4.1-15.6-4-6.6 0-12.5-.2-13-.6-.5-.3-.9-5.4-.9-11.4.1-8.2-.2-11.2-1.3-12.6-1.8-2-4.5-2.2-6.1-.3z"/><path d="M323.2 249.2c-.8.8-1.2 5.2-1.2 13V274h-14.3c-16.1 0-18.3.7-17.2 5.3.4 1.5 1 2.8 1.4 2.9.3 0 6.9.2 14.6.4 7.7.1 14.3.3 14.8.3.4.1.7 5.4.7 12 0 12.9.8 14.9 5.4 13.7 3-.7 3.4-2.6 3.2-14.9-.1-8 .2-10 1.4-10.6.8-.4 6.7-.6 13-.5 12.6.1 15-.5 15-3.9 0-4.2-1.6-4.7-15.9-4.7h-13.6l.1-10.9c0-5.9-.3-11.8-.7-13-.9-2.3-4.7-2.9-6.7-.9zm129.3.3c-1.6.7-4.8 2.9-7 5-2.2 2-5.5 4.8-7.3 6.2l-3.2 2.5-6.8-1.7c-3.7-.9-7.6-1.9-8.7-2.2-6.4-1.5-12.2.6-14.3 5.3-2.2 4.6-1.8 6.5 3.6 18.4 1.3 3 2.5 6.2 2.7 7 .1.8-2.3 5.5-5.3 10.3-6.9 11.3-7.2 17-.9 21.2 2.8 1.8 5.7 2 17.2 1.1l9-.7 7.2 8.5c8 9.4 10.7 10.7 16.6 8.2 3.8-1.5 6.5-4.8 7.2-8.7.3-1.3 1.2-5.6 2.1-9.5 1.5-7 1.7-7.2 5.7-8.9 2.3-1 6.1-2.6 8.4-3.6 2.4-1.1 4.7-1.9 5.2-1.9 2.3 0 6.1-6.3 6.1-9.9 0-5.2-2.7-8.3-12.1-13.7-4.3-2.5-8.1-5-8.4-5.5-.3-.4-.8-3.7-1.1-7.1-.8-11.6-1.5-15.3-3.2-17.1-3.6-4.1-8.3-5.2-12.7-3.2zm-42.6 163.2c-2.3.6-2.6 2.1-2.5 14.6.1 5.9-.1 10.8-.4 10.8-.3.1-7 .2-14.8.3-12.7.1-14.5.3-15.7 2-1.4 1.8-1 4.5.9 5.8.6.4 7.5.8 15.2.8 10.5 0 14.3.3 14.6 1.2.2.7.3 6 .2 11.6-.2 9.2 0 10.6 1.8 12.4 1.7 1.7 2.2 1.8 4.1.5 2-1.3 2.2-2.4 2.5-13.6l.3-12.1H430c14 0 14.8-.2 15.5-3.9.7-3.8-2-4.5-15.9-4.6h-13.1l-.3-12c-.2-9.8-.5-12.2-1.9-13.3-.9-.6-1.9-1.1-2.2-1.1-.3.1-1.3.3-2.2.6z"/></svg>